<svg xmlns="http://www.w3.org/2000/svg" viewBox="0 0 200 220">
  <!-- Body / round shape -->
  <ellipse cx="100" cy="130" rx="65" ry="60" fill="#C45D3E"/>
  <!-- Belly highlight -->
  <ellipse cx="100" cy="140" rx="42" ry="38" fill="#E8805F" opacity="0.5"/>

  <!-- Head -->
  <circle cx="100" cy="68" r="48" fill="#C45D3E"/>

  <!-- Face highlight -->
  <circle cx="100" cy="65" r="38" fill="#D4704E"/>

  <!-- Eyes - white -->
  <ellipse cx="82" cy="60" rx="12" ry="13" fill="white"/>
  <ellipse cx="118" cy="60" rx="12" ry="13" fill="white"/>

  <!-- Pupils -->
  <circle cx="85" cy="59" r="6" fill="#1A1714"/>
  <circle cx="121" cy="59" r="6" fill="#1A1714"/>

  <!-- Eye shine -->
  <circle cx="87" cy="56" r="2.5" fill="white"/>
  <circle cx="123" cy="56" r="2.5" fill="white"/>

  <!-- Happy smile -->
  <path d="M82 78 Q100 95 118 78" fill="none" stroke="#1A1714" stroke-width="3" stroke-linecap="round"/>

  <!-- Blush cheeks -->
  <ellipse cx="70" cy="76" rx="8" ry="5" fill="#E8805F" opacity="0.6"/>
  <ellipse cx="130" cy="76" rx="8" ry="5" fill="#E8805F" opacity="0.6"/>

  <!-- Explorer hat / beret -->
  <path d="M52 52 Q55 25 100 20 Q145 25 148 52" fill="#D4A853"/>
  <ellipse cx="100" cy="52" rx="52" ry="8" fill="#D4A853"/>
  <ellipse cx="100" cy="52" rx="52" ry="8" fill="#C49643" opacity="0.4"/>
  <!-- Hat band -->
  <rect x="55" y="48" width="90" height="6" rx="3" fill="#1A1714" opacity="0.2"/>

  <!-- Left arm -->
  <path d="M38 120 Q20 130 25 150 Q28 158 35 155" fill="#C45D3E" stroke="#B04E33" stroke-width="1.5"/>

  <!-- Right arm holding magnifying glass -->
  <path d="M162 120 Q178 115 175 100 Q174 92 168 95" fill="#C45D3E" stroke="#B04E33" stroke-width="1.5"/>

  <!-- Magnifying glass -->
  <line x1="168" y1="95" x2="155" y2="75" stroke="#D4A853" stroke-width="5" stroke-linecap="round"/>
  <circle cx="148" cy="62" r="18" fill="none" stroke="#D4A853" stroke-width="5"/>
  <circle cx="148" cy="62" r="13" fill="#E0F0FF" opacity="0.5"/>
  <!-- Glass shine -->
  <path d="M140 54 Q143 50 147 49" fill="none" stroke="white" stroke-width="2" stroke-linecap="round" opacity="0.7"/>

  <!-- Feet -->
  <ellipse cx="78" cy="188" rx="20" ry="10" fill="#B04E33"/>
  <ellipse cx="122" cy="188" rx="20" ry="10" fill="#B04E33"/>

  <!-- SF on belly -->
  <text x="100" y="150" font-family="Arial,sans-serif" font-size="24" font-weight="bold" fill="white" text-anchor="middle" opacity="0.7">SF</text>
</svg>
